<?xml version="1.0" encoding="UTF-8"?>
<svg id="Capa_2" data-name="Capa 2" xmlns="http://www.w3.org/2000/svg" viewBox="0 0 1035.29 265.16">
  <defs>
    <style>
      .cls-1 {
        fill: #121214;
      }

      .cls-2 {
        fill: #5d3fd3;
      }
    </style>
  </defs>
  <g id="Capa_1-2" data-name="Capa 1">
    <g>
      <g>
        <polygon class="cls-2" points="218.72 63.13 218.72 63.15 196.86 75.78 174.97 88.4 153.1 101.03 131.24 113.65 109.35 126.28 87.48 113.65 109.35 101.03 131.24 88.4 131.24 88.38 153.1 75.78 174.97 63.15 174.97 63.13 153.1 50.5 131.24 63.13 109.35 75.75 109.35 75.78 87.48 88.4 65.62 101.03 43.73 88.4 21.86 75.78 0 63.15 0 63.13 21.86 50.5 43.73 63.13 43.73 63.15 65.62 75.78 87.48 63.15 87.48 63.13 109.35 50.53 109.35 50.5 131.24 37.88 109.35 25.25 87.48 12.63 109.35 0 131.24 12.63 153.1 25.25 174.97 37.88 196.86 50.5 218.72 63.13"/>
        <polygon class="cls-2" points="21.91 113.63 21.91 138.88 43.78 151.51 65.67 164.13 65.67 164.16 87.53 176.76 109.39 189.38 109.39 265.16 87.53 252.54 65.67 239.91 43.8 227.29 43.78 227.29 21.91 214.66 .05 202.04 .05 176.79 21.91 189.41 43.78 202.04 65.67 214.66 87.53 227.29 87.53 202.04 65.67 189.41 65.67 189.38 43.78 176.76 21.91 164.13 .05 151.51 .05 75.76 21.91 88.38 43.78 101.01 65.67 113.63 87.53 126.26 109.39 138.88 109.39 164.13 87.53 151.51 65.67 138.88 65.64 138.88 43.78 126.26 21.91 113.63"/>
        <polygon class="cls-2" points="229.7 69.45 229.7 195.73 207.84 183.11 207.84 183.08 207.81 183.08 185.95 170.48 185.95 170.45 164.09 157.86 164.09 157.83 142.22 145.2 142.22 246.26 120.36 258.86 120.33 258.86 120.33 132.58 142.22 119.95 164.09 132.58 185.95 145.2 185.98 145.2 207.84 157.83 207.84 82.08 229.7 69.45"/>
      </g>
      <g>
        <path class="cls-1" d="M370.08,128.17c-6.4-2.88-13.8-4.69-22.19-5.43l-8.81-.79c-5.25-.42-9.02-1.83-11.33-4.25-2.31-2.41-3.46-5.19-3.46-8.34,0-2.62,.63-5.01,1.89-7.16,1.26-2.15,3.17-3.83,5.74-5.03,2.57-1.21,5.74-1.81,9.52-1.81,3.98,0,7.32,.71,9.99,2.13,2.67,1.42,4.69,3.3,6.06,5.66,1.36,2.36,2.05,4.96,2.05,7.79h25.17c0-7.45-1.73-13.98-5.19-19.59-3.46-5.61-8.42-9.99-14.87-13.14-6.45-3.15-14.19-4.72-23.21-4.72s-16.05,1.44-22.34,4.33c-6.29,2.89-11.2,7-14.71,12.35-3.51,5.35-5.27,11.75-5.27,19.2,0,10.18,3.41,18.33,10.23,24.47,6.82,6.14,15.95,9.73,27.38,10.78l8.65,.63c7.03,.63,12.12,2.02,15.26,4.17,3.15,2.15,4.72,5.06,4.72,8.73,0,2.94-.84,5.53-2.52,7.79-1.68,2.26-4.15,4.01-7.4,5.27-3.25,1.26-7.29,1.89-12.11,1.89-5.35,0-9.71-.76-13.06-2.28-3.36-1.52-5.85-3.54-7.47-6.06-1.63-2.52-2.44-5.24-2.44-8.18h-25.18c0,7.45,1.86,14.03,5.59,19.75,3.72,5.72,9.15,10.25,16.29,13.61,7.13,3.36,15.89,5.03,26.28,5.03,9.76,0,18.15-1.52,25.18-4.56,7.03-3.04,12.45-7.34,16.28-12.9,3.83-5.56,5.74-12.01,5.74-19.36s-1.81-13.19-5.43-18.17c-3.62-4.98-8.63-8.92-15.03-11.8"/>
        <path class="cls-1" d="M440.5,170.27h-3.1l-19.18-64.67h-25.49l26.59,84.34h16.48l-.9,3.78c-.74,2.73-1.68,4.88-2.83,6.45-1.15,1.57-2.67,2.7-4.56,3.38-1.89,.68-4.2,1.02-6.92,1.02h-17.94v21.4h15.42c7.66,0,13.97-.84,18.96-2.52,4.98-1.68,8.97-4.54,11.96-8.57,2.99-4.04,5.32-9.42,7-16.13l24.07-93.15h-24.07l-15.47,64.67Z"/>
        <path class="cls-1" d="M538.69,102.92h-1.1c-6.61,0-12.22,1.47-16.84,4.41-4.62,2.94-8.05,7.34-10.31,13.22-.8,2.08-1.45,4.36-1.97,6.81v-21.76h-20.14v86.23h25.33v-50.19c0-4.82,1.44-8.71,4.33-11.65,2.89-2.93,6.69-4.4,11.41-4.4s8.26,1.44,10.94,4.33c2.67,2.89,4.01,6.64,4.01,11.25v50.67h25.33v-49.25c0-13.32-2.65-23.26-7.95-29.82-5.3-6.55-12.98-9.83-23.05-9.83"/>
        <path class="cls-1" d="M612.29,82.31h-23.45l-.05,23.29h-13.17v18.57h13.13l-.07,33.99c0,8.71,1.26,15.61,3.78,20.69,2.52,5.09,6.45,8.73,11.8,10.94,5.35,2.2,12.38,3.3,21.08,3.3h12.12v-21.4h-12.75c-3.99,0-7.06-1.07-9.21-3.23-2.15-2.15-3.22-5.27-3.22-9.36v-34.93h25.18v-18.57h-25.18v-23.29Z"/>
        <path class="cls-1" d="M700.34,102.92h-1.1c-6.51,0-11.91,1.55-16.21,4.64-4.01,2.89-7.1,7.04-9.28,12.44v-43.04h-25.33v114.86h25.33v-49.72c0-4.93,1.44-8.91,4.33-11.96,2.89-3.04,6.69-4.56,11.41-4.56s8.13,1.41,10.86,4.25c2.73,2.83,4.09,6.61,4.09,11.33v50.67h25.33v-49.09c0-13.01-2.52-22.89-7.55-29.66-5.04-6.77-12.33-10.15-21.87-10.15"/>
        <path class="cls-1" d="M758.76,97.1c4.72,0,8.21-1.23,10.46-3.7,2.25-2.46,3.38-5.59,3.38-9.36s-1.13-7.05-3.38-9.52c-2.26-2.46-5.74-3.7-10.46-3.7s-8.21,1.23-10.46,3.7c-2.26,2.46-3.38,5.64-3.38,9.52s1.13,6.9,3.38,9.36c2.25,2.46,5.74,3.7,10.46,3.7"/>
        <polygon class="cls-1" points="737.36 105.59 737.36 124.32 748.85 124.32 748.85 191.82 774.18 191.82 774.18 124.32 774.18 105.59 748.85 105.59 737.36 105.59"/>
        <path class="cls-1" d="M855.26,108.82c-6.35-4.14-14.14-6.22-23.37-6.22-7.03,0-13.3,1.23-18.8,3.7-5.51,2.47-10.12,5.8-13.85,9.99-3.73,4.2-6.56,8.94-8.5,14.24-1.94,5.3-2.91,10.83-2.91,16.6v3.15c0,5.56,.97,10.99,2.91,16.29,1.94,5.3,4.8,10.1,8.58,14.4,3.78,4.3,8.47,7.71,14.08,10.23,5.61,2.52,12.09,3.78,19.43,3.78s13.63-1.29,19.2-3.86c5.56-2.57,10.17-6.11,13.85-10.62,3.67-4.51,6.14-9.65,7.4-15.42h-23.13c-1.05,2.63-3.04,4.83-5.98,6.61-2.94,1.78-6.71,2.67-11.33,2.67-5.04,0-9.13-1.05-12.28-3.15-3.15-2.1-5.46-5.06-6.92-8.89-.82-2.12-1.38-4.47-1.75-7h62.95v-8.5c0-7.87-1.68-15.13-5.04-21.79-3.36-6.66-8.21-12.06-14.55-16.21m-41.46,25.96c1.57-3.83,3.88-6.71,6.92-8.65,3.04-1.94,6.76-2.91,11.17-2.91s7.89,.97,10.78,2.91c2.88,1.94,5.03,4.72,6.45,8.34,.76,1.94,1.3,4.13,1.65,6.53h-38.71c.39-2.27,.97-4.35,1.73-6.22"/>
        <path class="cls-1" d="M936.53,102.92h-1.1c-6.61,0-12.22,1.47-16.84,4.41-4.62,2.94-8.05,7.34-10.31,13.22-.8,2.08-1.45,4.36-1.97,6.81v-21.76h-20.14v86.23h25.33v-50.19c0-4.82,1.44-8.71,4.33-11.65,2.89-2.93,6.69-4.4,11.41-4.4s8.26,1.44,10.94,4.33c2.67,2.89,4.01,6.64,4.01,11.25v50.67h25.33v-49.25c0-13.32-2.65-23.26-7.95-29.82-5.3-6.55-12.98-9.83-23.05-9.83"/>
        <path class="cls-1" d="M1035.29,124.16v-18.57h-25.18v-23.29h-23.45l-.05,23.29h-13.17v18.57h13.13l-.07,33.99c0,8.71,1.26,15.61,3.78,20.69,2.52,5.09,6.45,8.73,11.8,10.94,5.35,2.2,12.38,3.3,21.08,3.3h12.12v-21.4h-12.75c-3.99,0-7.05-1.07-9.21-3.22-2.15-2.15-3.22-5.27-3.22-9.36v-34.93h25.18Z"/>
      </g>
    </g>
  </g>
</svg>